<svg width="19" height="19" viewBox="0 0 19 19" fill="none" xmlns="http://www.w3.org/2000/svg">
<path fill-rule="evenodd" clip-rule="evenodd" d="M11.0654 2.0498C11.0654 1.42848 10.5618 0.924805 9.94043 0.924805C9.31911 0.924805 8.81543 1.42848 8.81543 2.0498V8.7998H2.06543C1.44411 8.7998 0.94043 9.30348 0.94043 9.9248C0.94043 10.5461 1.44411 11.0498 2.06543 11.0498H8.81543V17.7998C8.81543 18.4211 9.31911 18.9248 9.94043 18.9248C10.5618 18.9248 11.0654 18.4211 11.0654 17.7998V11.0498H17.8154C18.4368 11.0498 18.9404 10.5461 18.9404 9.9248C18.9404 9.30348 18.4368 8.7998 17.8154 8.7998H11.0654V2.0498Z" fill="#86C502"/>
</svg>
